<svg width="57" height="57" viewBox="0 0 57 57" fill="none" xmlns="http://www.w3.org/2000/svg">
<path fill-rule="evenodd" clip-rule="evenodd" d="M51.7253 27.8094C51.9056 40.8167 41.4705 51.5451 28.4632 51.7254C15.456 51.9056 4.72757 41.4705 4.54731 28.4633C4.36704 15.456 14.8021 4.7276 27.8094 4.54734C40.8167 4.36708 51.5451 14.8022 51.7253 27.8094ZM0.384551 28.521C0.596621 43.8233 13.2186 56.1002 28.5209 55.8881C43.8233 55.6761 56.1002 43.0541 55.8881 27.7518C55.676 12.4494 43.0541 0.172523 27.7517 0.384593C12.4494 0.596664 0.172481 13.2186 0.384551 28.521Z" fill="url(#paint0_linear_327_31)"/>
<path d="M43.5575 28.1804C43.5467 27.3999 42.9577 26.7629 42.2038 26.6712L41.9944 26.66L11.1591 27.0874C10.3076 27.0992 9.62686 27.799 9.63866 28.6505C9.64948 29.431 10.2384 30.0681 10.9924 30.1597L11.2018 30.1709L42.0371 29.7436C42.8886 29.7318 43.5693 29.0319 43.5575 28.1804Z" fill="#003E70"/>
<path d="M24.5484 17.15C25.1435 16.5408 25.132 15.5646 24.5229 14.9696C23.9691 14.4286 23.112 14.3888 22.5136 14.8438L22.3424 14.9951L10.0771 27.5509C9.53455 28.1063 9.49641 28.9665 9.95489 29.5648L10.1073 29.7359L22.7159 41.949C23.3276 42.5415 24.3037 42.526 24.8962 41.9143C25.4348 41.3582 25.4709 40.5009 25.0135 39.9045L24.8615 39.734L13.3657 28.5974L24.5484 17.15Z" fill="#003E70"/>
<defs>
<linearGradient id="paint0_linear_327_31" x1="55.8881" y1="27.7518" x2="0.384551" y2="28.521" gradientUnits="userSpaceOnUse">
<stop stop-color="#72B9BD"/>
<stop offset="1" stop-color="#003E70"/>
</linearGradient>
</defs>
</svg>
